<?xml version="1.0" encoding="UTF-8"?>
<svg id="Layer_1" xmlns="http://www.w3.org/2000/svg" version="1.1" viewBox="0 0 469.5 216.2">
  <!-- Generator: Adobe Illustrator 29.7.0, SVG Export Plug-In . SVG Version: 2.1.1 Build 138)  -->
  <defs>
    <style>
      .st0 {
        fill: #f0f;
      }

      .st1 {
        fill: aqua;
      }
    </style>
  </defs>
  <g>
    <path d="M96.2,19.7H12.7c-4.1,0-7.4,3.3-7.4,7.4v100.4c0,4.1,3.3,7.4,7.4,7.4h83.5c4.1,0,7.4-3.3,7.4-7.4v-46.8h-8.7v45.5H14V28.4h80.9v8.7h8.7v-10c0-4.1-3.3-7.4-7.4-7.4Z"/>
    <path d="M74.2,93.9v-12.6h-8.7v13c0,0,.3,6.5-3.6,10.6-2.4,2.6-6.2,3.9-11.1,3.9v8.7c7.5,0,13.4-2.2,17.5-6.7,6.1-6.5,6-15.5,5.9-16.9Z"/>
    <path d="M58.2,98.4v-8.7c-5.5,0-9.3-2-11.5-6-1.8-3.3-1.8-6.9-1.8-6.9v-34.7h-8.7v12.4h-14v8.7h13.9v13.6c0,7.5,4.6,21.6,22,21.6Z"/>
    <path d="M87.6,58.8c0-9.8-8-17.8-17.7-17.8s-17.8,8-17.8,17.8,8,17.7,17.8,17.7,17.7-8,17.7-17.7ZM69.9,67.8c-5,0-9-4.1-9-9s4.1-9,9-9,9,4.1,9,9-4.1,9-9,9Z"/>
    <rect x="94.9" y="42.1" width="8.7" height="33.7"/>
  </g>
  <g>
    <path d="M449,82.4c-15.7,13.7-27.9,22-36.3,24.8V39.2h-25.8v31.1l-32.5,26.9v-58.1h-25.8v.2c-27.3,10-42.8,6.7-46.6,5.5-8.4-5.6-18.6-8.9-29.6-8.9-28.7,0-52.1,22.4-52.1,50s.9,10.6,2.6,15.4c-5.6,3.7-14.5,8.1-25.5,8.7-2.7.2-6.3,0-8.2-1.8-2-1.9-2.5-5.7-2.5-6.6h0s0-34.5,0-34.5h27.1v-25.8h-27.2V10.1l-25.8,9.6v21.8h-16.1v25.8h16.1v34c0,2.6.3,15.9,10.2,25.6,4.4,4.3,12.2,9.2,24.9,9.2s1.9,0,2.9,0c16.6-.9,29.9-7.4,38.4-13.1,9.3,8.2,21.6,13.2,35.2,13.2,28.7,0,52.1-22.4,52.1-50s-.7-9.1-1.9-13.4c8.4-.3,17.1-1.7,26-4.3v50.4l-7.5,6.2c-35.6,26.4-34,51.4-31.7,60.9,3.5,14.1,15.1,24.6,29.6,26.9,1.7.3,3.3.4,4.9.4,6.7,0,12.7-2.2,17.6-6.6,12.8-11.2,13-32.6,12.9-37.2v-38.4l32.5-26.9v9.8s.2,23.4,22.7,22.6c11.1-.4,22.9-4.9,54.6-35.9l-15.2-17.9ZM252.4,110.2c-14.5,0-26.3-10.9-26.3-24.2s11.8-24.2,26.3-24.2,26.3,10.9,26.3,24.2-11.8,24.2-26.3,24.2ZM323,187.1c-1.6.3-3.8-.5-5.2-1.6,0,0-2.8-2.1-3.3-5.9-.8-6.2,1.7-16.1,14.1-27.5v17.6c.6,13.6-2.4,16.9-5.6,17.4Z"/>
    <ellipse class="st1" cx="339.9" cy="17.5" rx="15.1" ry="14.3"/>
    <ellipse class="st0" cx="398.5" cy="17.5" rx="15.1" ry="14.3"/>
  </g>
</svg>